<?xml version="1.0" encoding="utf-8"?>
<!-- Generator: Adobe Illustrator 25.0.0, SVG Export Plug-In . SVG Version: 6.00 Build 0)  -->
<svg version="1.1" id="图层_1" xmlns="http://www.w3.org/2000/svg" xmlns:xlink="http://www.w3.org/1999/xlink" x="0px" y="0px"
	 viewBox="0 0 90 40" style="enable-background:new 0 0 90 40;" xml:space="preserve">
<style type="text/css">
	.st0{filter:url(#Adobe_OpacityMaskFilter);}
	.st1{fill-rule:evenodd;clip-rule:evenodd;fill:#FFFFFF;}
	.st2{mask:url(#mask-2_1_);fill-rule:evenodd;clip-rule:evenodd;fill:#1A51FF;}
	.st3{filter:url(#Adobe_OpacityMaskFilter_1_);}
	.st4{mask:url(#mask-4_1_);fill-rule:evenodd;clip-rule:evenodd;fill:#1A51FF;}
	.st5{filter:url(#Adobe_OpacityMaskFilter_2_);}
	.st6{mask:url(#mask-6_1_);fill-rule:evenodd;clip-rule:evenodd;fill:#1A51FF;}
	.st7{fill-rule:evenodd;clip-rule:evenodd;fill:#1A51FF;}
	.st8{filter:url(#Adobe_OpacityMaskFilter_3_);}
	.st9{mask:url(#mask-8_1_);fill-rule:evenodd;clip-rule:evenodd;fill:#1A51FF;}
	.st10{filter:url(#Adobe_OpacityMaskFilter_4_);}
	.st11{mask:url(#mask-10_1_);fill-rule:evenodd;clip-rule:evenodd;fill:#1A51FF;}
</style>
<g id="公司官网">
	<g id="navigation-bar" transform="translate(-360.000000, -15.000000)">
		<g id="logo" transform="translate(360.000000, 15.000000)">
			<g id="编组_4_" transform="translate(35.728612, 0.000000)">
				<g id="Clip-16">
				</g>
				<defs>
					<filter id="Adobe_OpacityMaskFilter_4_" filterUnits="userSpaceOnUse" x="12.2" y="0" width="41.7" height="39.9">
						<feColorMatrix  type="matrix" values="1 0 0 0 0  0 1 0 0 0  0 0 1 0 0  0 0 0 1 0"/>
					</filter>
				</defs>
				<mask maskUnits="userSpaceOnUse" x="12.2" y="0" width="41.7" height="39.9" id="mask-10_1_">
					<g class="st10">
						<polygon id="path-9_1_" class="st1" points="12.2,0 53.9,0 53.9,39.9 12.2,39.9 						"/>
					</g>
				</mask>
				<path id="Fill-15" class="st11" d="M39.8,2.4c-1.1-0.3-2.5-0.5-4.2-0.6c-1.6-0.1-3.4,0-5.3,0.7c-1.8,0.7-3.6,2-5.4,3.6
					c-0.9,0.8-1.9,1.7-3,2.6c-1.1,0.9-2.6,1.7-4.2,1.9c-0.4,0.1-0.8,0.1-1.2,0.1c-0.6,0-0.9-0.1-1.1-0.1c-0.2,0-0.2,0-0.2,0
					c0,0,0,0-0.1,0.1c0,0-0.1,0.2-0.1,0.2c0,0,0,0,0,0.1c0,0.1,0.2,0.3,0.4,0.5l0.2,0.2l0.1,0.1l0.1,0.1l0.2,0.1
					c0.2,0.2,0.6,0.3,0.9,0.5c1.3,0.6,2.7,1.1,4.2,1.6c1.5,0.5,3,0.9,4.6,1.4c0.9,0.3,1.9,0.6,2.8,0.9c0.2,0.1,0.5,0.2,0.7,0.2
					l0.7,0.2l0.4,0.1c0.2,0.1,0.4,0.2,0.6,0.3c0.4,0.2,0.7,0.6,0.9,1c0.2,0.4,0.2,0.7,0.2,1.1c0,0.2,0,0.4,0,0.6l0,0.3
					c0,0.3-0.1,0.7-0.1,1c0,0.3,0,0.7,0,1c0,0.2,0,0.3,0.1,0.5l0,0.2c0,0.1,0,0.2,0,0.2c0,0,0,0,0,0.1c0,0,0,0,0.1,0l0,0
					c0,0,0,0,0,0l0.1-0.2l0.2-0.4c0.1-0.3,0.3-0.5,0.4-0.8c0.1-0.3,0.3-0.6,0.6-1c0.3-0.4,0.8-0.7,1.3-0.9c0.3-0.1,0.5-0.1,0.8-0.1
					c0.2,0,0.6,0.1,0.7,0.1c0.4,0.1,0.7,0.2,0.9,0.3c0.3,0.1,0.5,0.2,0.8,0.3c2,0.9,3.9,2,5.5,3.1c3.3,2.3,5.7,5,7.3,7.4
					c1.6,2.4,2.4,4.7,2.8,6.2c0.4,1.5,0.4,2.4,0.3,2.4c-0.2,0-0.5-0.7-1.1-2.1c-0.6-1.4-1.6-3.4-3.3-5.5c-1.7-2.2-4.1-4.5-7.2-6.5
					c-1.6-1-3.3-1.9-5.2-2.7c-0.2-0.1-0.5-0.2-0.7-0.3c-0.2-0.1-0.5-0.2-0.6-0.2c-0.1,0-0.1,0-0.1,0c0,0,0,0,0,0c0,0,0,0-0.1,0
					c-0.1,0.1-0.4,0.7-0.6,1.2c-0.4,0.8-0.8,1.6-1.1,2.5c-0.3,0.7-0.8,0.9-1.1,1c-0.2,0.1-0.5,0.1-0.7,0.1c-0.3,0-0.6-0.1-0.7-0.2
					c-0.4-0.2-0.7-0.5-1-1.2c-0.3-0.6-0.5-1.3-0.7-2.1l-0.1-0.4l-0.1-0.3c0-0.2-0.1-0.4-0.1-0.7c-0.1-0.4-0.1-0.9-0.1-1.3
					c0-0.4,0-0.9,0.1-1.3l0-0.3c0-0.1,0,0,0,0l0,0l-0.3-0.1l-0.7-0.2c-0.2-0.1-0.4-0.2-0.7-0.2c-0.9-0.3-1.8-0.6-2.8-0.9
					c-1.5-0.5-3.1-0.9-4.6-1.4c-1.5-0.5-3-1-4.5-1.7c-0.4-0.2-0.8-0.4-1.1-0.6l-0.3-0.2l-0.3-0.3l-0.3-0.3l-0.2-0.2
					c-0.3-0.3-0.6-0.7-0.9-1.3c-0.3-0.7-0.3-1.5,0-2.1c0.1-0.3,0.2-0.5,0.4-0.8c0.2-0.2,0.4-0.5,0.7-0.7C14.2,8.1,14.9,8,15.4,8
					c0.5,0,0.9,0.1,1,0.1c0.3,0,0.6,0,0.9-0.1c2.3-0.3,4.2-2.1,6.1-3.8c1-0.8,2-1.6,3-2.3c1.1-0.7,2.2-1.2,3.3-1.5
					c2.2-0.7,4.3-0.6,6.1-0.4c1.7,0.3,3.2,0.7,4.3,1.1c2.3,0.9,3.4,1.6,3.3,1.8C43.4,3.3,42.1,2.9,39.8,2.4z"/>
			</g>
		</g>
	</g>
</g>
</svg>
