<?xml version="1.0" encoding="utf-8"?>
<!-- Generator: Adobe Illustrator 25.0.0, SVG Export Plug-In . SVG Version: 6.00 Build 0)  -->
<svg version="1.1" id="图层_1" xmlns="http://www.w3.org/2000/svg" xmlns:xlink="http://www.w3.org/1999/xlink" x="0px" y="0px"
	 viewBox="0 0 90 40" style="enable-background:new 0 0 90 40;" xml:space="preserve">
<style type="text/css">
	.st0{filter:url(#Adobe_OpacityMaskFilter);}
	.st1{fill-rule:evenodd;clip-rule:evenodd;fill:#FFFFFF;}
	.st2{mask:url(#mask-2_1_);fill-rule:evenodd;clip-rule:evenodd;fill:#1A51FF;}
	.st3{filter:url(#Adobe_OpacityMaskFilter_1_);}
	.st4{mask:url(#mask-4_1_);fill-rule:evenodd;clip-rule:evenodd;fill:#1A51FF;}
	.st5{filter:url(#Adobe_OpacityMaskFilter_2_);}
	.st6{mask:url(#mask-6_1_);fill-rule:evenodd;clip-rule:evenodd;fill:#1A51FF;}
	.st7{fill-rule:evenodd;clip-rule:evenodd;fill:#1A51FF;}
	.st8{filter:url(#Adobe_OpacityMaskFilter_3_);}
	.st9{mask:url(#mask-8_1_);fill-rule:evenodd;clip-rule:evenodd;fill:#1A51FF;}
	.st10{filter:url(#Adobe_OpacityMaskFilter_4_);}
	.st11{mask:url(#mask-10_1_);fill-rule:evenodd;clip-rule:evenodd;fill:#1A51FF;}
</style>
<g id="公司官网">
	<g id="navigation-bar" transform="translate(-360.000000, -15.000000)">
		<g id="logo" transform="translate(360.000000, 15.000000)">
			<g id="编组" transform="translate(-0.000000, 24.806157)">
				<g id="Clip-2">
				</g>
				<defs>
					<filter id="Adobe_OpacityMaskFilter" filterUnits="userSpaceOnUse" x="0.3" y="8.3" width="6.6" height="6.9">
						<feColorMatrix  type="matrix" values="1 0 0 0 0  0 1 0 0 0  0 0 1 0 0  0 0 0 1 0"/>
					</filter>
				</defs>
				<mask maskUnits="userSpaceOnUse" x="0.3" y="8.3" width="6.6" height="6.9" id="mask-2_1_">
					<g class="st0">
						<polygon id="path-1_1_" class="st1" points="0.3,8.3 6.9,8.3 6.9,15.2 0.3,15.2 						"/>
					</g>
				</mask>
				<path id="Fill-1" class="st2" d="M6.9,10.1c0-0.8,0-1.3,0-1.7c0-0.1,0-0.1-0.1-0.1c-0.1,0-0.2,0-0.4,0c-0.2,0-0.3,0-0.4,0
					c-0.1,0-0.2,0-0.4,0c-0.2,0-0.3,0-0.4,0c-0.1,0-0.1,0.1-0.1,0.2c0,0.2,0,0.6,0,1.1c0,0.5,0,0.8,0,1.1c0,0.1,0,0.2-0.1,0.2
					c-0.1,0-0.5,0-1.2,0c-0.8,0-1.2,0-1.3,0c-0.1,0-0.1-0.1-0.1-0.2c0-0.2,0-0.6,0.1-1.1c0-0.5,0.1-0.9,0.1-1.1c0-0.1,0-0.1-0.1-0.1
					c-0.1,0-0.3,0-0.5,0c-0.2,0-0.4,0-0.5,0c-0.1,0-0.3,0-0.5,0c-0.2,0-0.4,0-0.5,0c-0.1,0-0.1,0-0.1,0.1c0,0.4,0,1,0,1.7
					c0,0.8,0,1.3,0,1.7c0,0.4,0,0.9-0.1,1.6c0,0.7-0.1,1.2-0.1,1.6c0,0.1,0,0.1,0.1,0.2c0.1,0,0.4,0,0.8,0c0.5,0,0.8,0,0.9,0
					c0.1,0,0.1-0.1,0.1-0.2c0-0.3,0-0.6,0-1.1c0-0.5,0-0.9,0-1.1c0-0.1,0-0.2,0.1-0.2c0.1,0,0.5,0,1.2,0c0.7,0,1.1,0,1.2,0
					c0.1,0,0.1,0.1,0.1,0.2c0,0.3,0,0.6,0,1.2c0,0.5,0,0.9,0,1.2c0,0.1,0,0.1,0.1,0.1c0.1,0,0.4,0,0.9,0c0.4,0,0.6,0,0.8,0
					c0.1,0,0.1,0,0.1,0c0,0,0-0.1,0-0.1c0-0.4,0-0.9-0.1-1.6c0-0.7-0.1-1.2-0.1-1.6C6.8,11.4,6.8,10.9,6.9,10.1z"/>
			</g>
			<g id="编组_1_" transform="translate(11.017722, 24.806193)">
				<g id="Clip-4">
				</g>
				<defs>
					<filter id="Adobe_OpacityMaskFilter_1_" filterUnits="userSpaceOnUse" x="4" y="8.3" width="2.1" height="6.9">
						<feColorMatrix  type="matrix" values="1 0 0 0 0  0 1 0 0 0  0 0 1 0 0  0 0 0 1 0"/>
					</filter>
				</defs>
				<mask maskUnits="userSpaceOnUse" x="4" y="8.3" width="2.1" height="6.9" id="mask-4_1_">
					<g class="st3">
						<polygon id="path-3_1_" class="st1" points="4,8.3 6.1,8.3 6.1,15.2 4,15.2 						"/>
					</g>
				</mask>
				<path id="Fill-3" class="st4" d="M6,8.3c-0.1,0-0.3,0-0.4,0c-0.2,0-0.3,0-0.4,0s-0.3,0-0.5,0c-0.2,0-0.4,0-0.5,0
					c-0.1,0-0.1,0-0.1,0.1c0,0.4,0,0.9,0,1.6c0,0.7,0,1.2,0,1.6c0,0.4,0,1.3-0.1,2.6c0,0.6,0,0.9,0,0.9c0,0.1,0,0.1,0.1,0.2
					c0.1,0,0.4,0,0.9,0c0.4,0,0.6,0,0.9,0c0.1,0,0.1,0,0.1,0c0,0,0-0.1,0-0.1c0-0.4,0-1,0-1.7c0-0.8,0-1.4,0-1.7
					c0-0.4,0-0.9,0.1-1.6c0-0.7,0.1-1.2,0.1-1.6C6.1,8.3,6.1,8.3,6,8.3z"/>
			</g>
			<g id="编组_2_" transform="translate(18.459667, 24.806157)">
				<g id="Clip-6">
				</g>
				<defs>
					<filter id="Adobe_OpacityMaskFilter_2_" filterUnits="userSpaceOnUse" x="6.5" y="8.3" width="5.1" height="6.9">
						<feColorMatrix  type="matrix" values="1 0 0 0 0  0 1 0 0 0  0 0 1 0 0  0 0 0 1 0"/>
					</filter>
				</defs>
				<mask maskUnits="userSpaceOnUse" x="6.5" y="8.3" width="5.1" height="6.9" id="mask-6_1_">
					<g class="st5">
						<polygon id="path-5_1_" class="st1" points="6.5,8.3 11.6,8.3 11.6,15.2 6.5,15.2 						"/>
					</g>
				</mask>
				<path id="Fill-5" class="st6" d="M11.6,8.7c0-0.2,0-0.3,0-0.4c0-0.1,0-0.1,0-0.1c0,0,0,0-0.1,0c0,0-0.2,0-0.6,0
					C10,8.4,9.5,8.4,9.2,8.4c-1,0-1.8,0-2.3-0.1c0,0-0.1,0-0.1,0c-0.1,0-0.1,0.1-0.1,0.4c0,0.2,0,0.3,0,0.5c0,0,0,0.2-0.1,0.4
					c0,0.2-0.1,0.3-0.1,0.4c0,0,0,0,0.1,0c0.4,0,0.9,0,1.6-0.1c0,0.9,0,1.4,0,1.7c0,0.4,0,1,0,1.7c0,0.8,0,1.3,0,1.7
					c0,0.1,0,0.1,0.1,0.2c0.2,0,0.5,0,0.9,0c0.4,0,0.7,0,0.9,0c0.1,0,0.1,0,0.1,0c0,0,0-0.1,0-0.1c0-0.4,0-1,0-1.7
					c0-0.8,0-1.3,0-1.7c0-0.3,0-0.9,0-1.7c0.9,0,1.3,0.1,1.5,0.1c0.1,0,0.1,0,0.1-0.1c0-0.1,0-0.2,0-0.4c0-0.2,0-0.3,0-0.4
					C11.6,9,11.6,8.9,11.6,8.7z"/>
			</g>
			<path id="Fill-7" class="st7" d="M42.2,37.7c-0.3,0.4-0.7,0.5-1.1,0.5c-0.5,0-0.9-0.2-1.1-0.5c-0.3-0.3-0.4-0.7-0.4-1.2
				c0-0.4,0.1-0.8,0.4-1.2c0.3-0.4,0.7-0.5,1.1-0.5c0.5,0,0.8,0.2,1.1,0.5c0.3,0.3,0.4,0.7,0.4,1.2C42.7,37,42.5,37.4,42.2,37.7
				 M41.1,33.1c-1,0-1.8,0.3-2.4,1c-0.6,0.7-0.9,1.5-0.9,2.5c0,1,0.3,1.8,0.9,2.4c0.6,0.7,1.4,1,2.4,1c1,0,1.8-0.3,2.4-1
				c0.6-0.7,0.9-1.5,0.9-2.5c0-1-0.3-1.8-0.9-2.5C42.9,33.4,42.1,33.1,41.1,33.1"/>
			<path id="Fill-9" class="st7" d="M54.8,35.8c-0.2-0.3-0.3-0.5-0.3-0.7c0-0.2,0.1-0.4,0.3-0.5c0.2-0.1,0.4-0.2,0.6-0.2
				c0,0,0.1,0,0.1,0c0.1,0,0.1,0,0.1,0c0.1,0,0.1,0,0.1-0.1c0,0,0,0,0,0c-0.3-0.6-0.5-1-0.6-1.2c0-0.1-0.1-0.1-0.1-0.1
				c0,0,0,0-0.1,0c-0.6,0.1-1.1,0.3-1.6,0.6c-0.5,0.4-0.8,0.8-0.8,1.4c0,0.4,0.1,0.7,0.3,1.1c0,0,0.2,0.3,0.6,0.7
				c0.2,0.2,0.3,0.5,0.3,0.7c0,0.3-0.2,0.6-0.5,0.7c-0.1,0.1-0.4,0.2-0.9,0.3c0,0-0.1,0-0.1,0.1c0,0.1,0.1,0.4,0.4,0.8
				c0.2,0.4,0.4,0.7,0.5,0.7c0,0,0,0,0.1,0c0.7-0.1,1.2-0.4,1.7-0.8c0.5-0.4,0.8-1,0.8-1.6c0-0.3-0.1-0.7-0.3-1
				C55.4,36.6,55.2,36.3,54.8,35.8"/>
			<path id="Fill-11" class="st7" d="M68.8,38.2c-0.2,0-0.4,0-0.8,0c-0.3,0-0.6,0-0.8,0h-0.7c-0.4,0-0.6-0.1-0.6-0.2
				c0-0.1,0-0.2,0-0.5c0-0.2,0-0.3,0-0.3c0-0.1,0.1-0.1,0.2-0.1h0.5c0.7,0,1.1,0,1.3,0l0.4,0c0.1,0,0.1,0,0.1-0.1c0-0.3,0-0.5,0-0.8
				c0.1-0.6,0.1-0.8,0.1-0.7c0-0.1,0-0.1-0.1-0.1c-0.1,0-0.2,0-0.3,0c-0.1,0-0.2,0-0.3,0c-0.4,0-0.8,0-1.2,0c-0.1,0-0.1,0-0.2,0
				c-0.1,0-0.2,0-0.2,0c-0.2,0-0.3,0-0.3-0.1c-0.1-0.1-0.1-0.2-0.1-0.4c0-0.2,0-0.3,0-0.4c0-0.1,0.1-0.1,0.3-0.1
				c0.7,0,1.5,0,2.3,0.1c0,0,0.1,0,0.1,0c0.1,0,0.1,0,0.1-0.1c0-0.1,0-0.3-0.1-0.7c0-0.4-0.1-0.6-0.1-0.7c0-0.1-0.1-0.2-0.3-0.2
				c-0.2,0-0.6,0-1.1,0c-0.5,0-0.8,0-1.1,0c-0.2,0-0.6,0-1.1,0c-0.5,0-0.8,0-1.1,0c-0.1,0-0.1,0-0.1,0.1l0,0.1c0,0.5,0,0.9,0.1,1.2
				c0,1,0.1,1.7,0.1,2.1c0,0.4,0,0.9-0.1,1.6c0,0.7-0.1,1.3-0.1,1.6c0,0.1,0.1,0.1,0.2,0.1c0.2,0,0.6,0,1.1,0c0.5,0,0.9,0,1.1,0
				c1.1,0,1.8,0,2.1,0c0.1,0,0.1,0,0.1,0c0.1,0,0.1,0,0.2-0.1c0-0.1,0.1-0.3,0.2-0.7c0.1-0.4,0.1-0.6,0.1-0.8
				C68.9,38.3,68.9,38.2,68.8,38.2"/>
			<g id="编组_3_" transform="translate(57.070844, 24.806212)">
				<g id="Clip-14">
				</g>
				<defs>
					<filter id="Adobe_OpacityMaskFilter_3_" filterUnits="userSpaceOnUse" x="19.4" y="8.3" width="6.8" height="6.9">
						<feColorMatrix  type="matrix" values="1 0 0 0 0  0 1 0 0 0  0 0 1 0 0  0 0 0 1 0"/>
					</filter>
				</defs>
				<mask maskUnits="userSpaceOnUse" x="19.4" y="8.3" width="6.8" height="6.9" id="mask-8_1_">
					<g class="st8">
						<polygon id="path-7_1_" class="st1" points="19.4,8.3 26.1,8.3 26.1,15.2 19.4,15.2 						"/>
					</g>
				</mask>
				<path id="Fill-13" class="st9" d="M22.9,12.5c-0.2,0-0.4,0-0.5,0c-0.2,0-0.3,0-0.3-0.1c0-0.1,0.1-0.4,0.3-0.9
					c0.2-0.5,0.3-0.8,0.3-0.9c0.1,0.1,0.2,0.4,0.3,0.9c0.1,0.5,0.2,0.8,0.2,0.9c0,0,0,0.1,0,0.1C23.2,12.5,23.1,12.5,22.9,12.5z
					 M23.6,8.4c-0.1-0.1-0.1-0.2-0.2-0.2c-0.1,0-0.2,0-0.4,0c-0.2,0-0.3,0-0.4,0c-0.1,0-0.2,0-0.4,0c-0.2,0-0.3,0-0.4,0
					c-0.1,0-0.1,0.1-0.1,0.2c-0.1,0.2-0.5,1.4-1.3,3.5c-0.7,2-1.1,3-1.1,3.1c0,0.1,0.2,0.1,0.7,0.1c0.6,0,1,0,1.1,0
					c0.1,0,0.2-0.2,0.2-0.4c0.1-0.3,0.1-0.5,0.2-0.5c0,0,0.3,0,0.9,0c0.8,0,1.2,0,1.3,0c0.1,0,0.1,0.3,0.3,0.7
					c0,0.1,0.1,0.2,0.2,0.2c0.1,0,0.4,0,0.9,0c0.5,0,0.8,0,0.9,0c0.1,0,0.1-0.1,0.1-0.1c0-0.1-0.4-1.1-1.1-3.1
					C24.2,9.9,23.8,8.8,23.6,8.4z"/>
			</g>
			<g id="编组_4_" transform="translate(35.728612, 0.000000)">
				<g id="Clip-16">
				</g>
				<defs>
					<filter id="Adobe_OpacityMaskFilter_4_" filterUnits="userSpaceOnUse" x="12.2" y="0" width="41.7" height="39.9">
						<feColorMatrix  type="matrix" values="1 0 0 0 0  0 1 0 0 0  0 0 1 0 0  0 0 0 1 0"/>
					</filter>
				</defs>
				<mask maskUnits="userSpaceOnUse" x="12.2" y="0" width="41.7" height="39.9" id="mask-10_1_">
					<g class="st10">
						<polygon id="path-9_1_" class="st1" points="12.2,0 53.9,0 53.9,39.9 12.2,39.9 						"/>
					</g>
				</mask>
				<path id="Fill-15" class="st11" d="M39.8,2.4c-1.1-0.3-2.5-0.5-4.2-0.6c-1.6-0.1-3.4,0-5.3,0.7c-1.8,0.7-3.6,2-5.4,3.6
					c-0.9,0.8-1.9,1.7-3,2.6c-1.1,0.9-2.6,1.7-4.2,1.9c-0.4,0.1-0.8,0.1-1.2,0.1c-0.6,0-0.9-0.1-1.1-0.1c-0.2,0-0.2,0-0.2,0
					c0,0,0,0-0.1,0.1c0,0-0.1,0.2-0.1,0.2c0,0,0,0,0,0.1c0,0.1,0.2,0.3,0.4,0.5l0.2,0.2l0.1,0.1l0.1,0.1l0.2,0.1
					c0.2,0.2,0.6,0.3,0.9,0.5c1.3,0.6,2.7,1.1,4.2,1.6c1.5,0.5,3,0.9,4.6,1.4c0.9,0.3,1.9,0.6,2.8,0.9c0.2,0.1,0.5,0.2,0.7,0.2
					l0.7,0.2l0.4,0.1c0.2,0.1,0.4,0.2,0.6,0.3c0.4,0.2,0.7,0.6,0.9,1c0.2,0.4,0.2,0.7,0.2,1.1c0,0.2,0,0.4,0,0.6l0,0.3
					c0,0.3-0.1,0.7-0.1,1c0,0.3,0,0.7,0,1c0,0.2,0,0.3,0.1,0.5l0,0.2c0,0.1,0,0.2,0,0.2c0,0,0,0,0,0.1c0,0,0,0,0.1,0l0,0
					c0,0,0,0,0,0l0.1-0.2l0.2-0.4c0.1-0.3,0.3-0.5,0.4-0.8c0.1-0.3,0.3-0.6,0.6-1c0.3-0.4,0.8-0.7,1.3-0.9c0.3-0.1,0.5-0.1,0.8-0.1
					c0.2,0,0.6,0.1,0.7,0.1c0.4,0.1,0.7,0.2,0.9,0.3c0.3,0.1,0.5,0.2,0.8,0.3c2,0.9,3.9,2,5.5,3.1c3.3,2.3,5.7,5,7.3,7.4
					c1.6,2.4,2.4,4.7,2.8,6.2c0.4,1.5,0.4,2.4,0.3,2.4c-0.2,0-0.5-0.7-1.1-2.1c-0.6-1.4-1.6-3.4-3.3-5.5c-1.7-2.2-4.1-4.5-7.2-6.5
					c-1.6-1-3.3-1.9-5.2-2.7c-0.2-0.1-0.5-0.2-0.7-0.3c-0.2-0.1-0.5-0.2-0.6-0.2c-0.1,0-0.1,0-0.1,0c0,0,0,0,0,0c0,0,0,0-0.1,0
					c-0.1,0.1-0.4,0.7-0.6,1.2c-0.4,0.8-0.8,1.6-1.1,2.5c-0.3,0.7-0.8,0.9-1.1,1c-0.2,0.1-0.5,0.1-0.7,0.1c-0.3,0-0.6-0.1-0.7-0.2
					c-0.4-0.2-0.7-0.5-1-1.2c-0.3-0.6-0.5-1.3-0.7-2.1l-0.1-0.4l-0.1-0.3c0-0.2-0.1-0.4-0.1-0.7c-0.1-0.4-0.1-0.9-0.1-1.3
					c0-0.4,0-0.9,0.1-1.3l0-0.3c0-0.1,0,0,0,0l0,0l-0.3-0.1l-0.7-0.2c-0.2-0.1-0.4-0.2-0.7-0.2c-0.9-0.3-1.8-0.6-2.8-0.9
					c-1.5-0.5-3.1-0.9-4.6-1.4c-1.5-0.5-3-1-4.5-1.7c-0.4-0.2-0.8-0.4-1.1-0.6l-0.3-0.2l-0.3-0.3l-0.3-0.3l-0.2-0.2
					c-0.3-0.3-0.6-0.7-0.9-1.3c-0.3-0.7-0.3-1.5,0-2.1c0.1-0.3,0.2-0.5,0.4-0.8c0.2-0.2,0.4-0.5,0.7-0.7C14.2,8.1,14.9,8,15.4,8
					c0.5,0,0.9,0.1,1,0.1c0.3,0,0.6,0,0.9-0.1c2.3-0.3,4.2-2.1,6.1-3.8c1-0.8,2-1.6,3-2.3c1.1-0.7,2.2-1.2,3.3-1.5
					c2.2-0.7,4.3-0.6,6.1-0.4c1.7,0.3,3.2,0.7,4.3,1.1c2.3,0.9,3.4,1.6,3.3,1.8C43.4,3.3,42.1,2.9,39.8,2.4z"/>
			</g>
		</g>
	</g>
</g>
</svg>
