<?xml version="1.0" encoding="utf-8"?>
<!-- Generator: Adobe Illustrator 26.1.0, SVG Export Plug-In . SVG Version: 6.00 Build 0)  -->
<svg version="1.1" id="图层_1" xmlns="http://www.w3.org/2000/svg" xmlns:xlink="http://www.w3.org/1999/xlink" x="0px" y="0px"
	 viewBox="0 0 100 100" style="enable-background:new 0 0 100 100;" xml:space="preserve">
<style type="text/css">
	.st0{fill:none;}
	.st1{fill:#D3D7E0;}
	
		.st2{clip-path:url(#SVGID_00000123404800281219029400000006963745428282343087_);fill-rule:evenodd;clip-rule:evenodd;fill:#FFFFFF;}
</style>
<g>
	<rect class="st0" width="100" height="100"/>
	<g>
		<ellipse class="st1" cx="50" cy="50" rx="50" ry="50"/>
	</g>
	<g>
		<defs>
			<ellipse id="SVGID_1_" cx="50" cy="50" rx="50" ry="50"/>
		</defs>
		<clipPath id="SVGID_00000165929280476681659290000011968206899436020891_">
			<use xlink:href="#SVGID_1_"  style="overflow:visible;"/>
		</clipPath>
		
			<path style="clip-path:url(#SVGID_00000165929280476681659290000011968206899436020891_);fill-rule:evenodd;clip-rule:evenodd;fill:#FFFFFF;" d="
			M92.2,97.1c-1.1-12.9-11.5-23.7-24.6-27.8l0,0c-2.9-0.9-5.9-1.5-9-1.7c0,0.6,0,1.2-0.1,1.8v-2.2c0,0,0.1,0,0.1,0v-4.8
			c3.6-2.7,6.6-7.1,8-12.5c0,0,0,0,0-0.1c2.5-0.9,3.6-2.8,3.5-5.7c0.2-2.4-0.6-3.5-1.7-4c0.7-3.5,1.3-8.2,0.9-12.4
			c0.1-0.1,0.1-0.1,0.2-0.2c0.5-0.5,0.7-1.3,0.6-2c-0.2-0.7-0.4-1.3-0.7-1.9c-2.2-5-7.2-8-12.2-9.4c-4.1-1.1-8.3-1.5-12.6-1.3
			c-2,0.1-3.9,0.3-5.8,0.6c-2.2,0.4-5.1,0.8-6.6,2.8c-0.7,0.9-1,2-1.1,3.2c-0.1,1.5,0.1,2.9,0.4,4.4C30,28.7,30.8,35.4,31.6,40
			c-1.1,0.5-1.9,1.6-1.7,4.1c-0.2,3,1.1,5,3.8,5.8c0,0,0,0.1,0,0.1c1.4,5.1,4.2,9.3,7.7,12l0,1.1v4.5C23.9,68.6,8.3,82,7.8,98.5
			c0,0.3,0,0.6,0,0.8v0.7h84.5v-0.7C92.2,98.6,92.2,97.8,92.2,97.1z"/>
	</g>
</g>
</svg>
